<svg width="80" height="80" viewBox="0 0 80 80" fill="none" xmlns="http://www.w3.org/2000/svg">
<path d="M40 60C41.1333 60 42.084 59.616 42.852 58.848C43.62 58.08 44.0027 57.1307 44 56C43.9973 54.8693 43.6133 53.92 42.848 53.152C42.0827 52.384 41.1333 52 40 52C38.8667 52 37.9173 52.384 37.152 53.152C36.3867 53.92 36.0027 54.8693 36 56C35.9973 57.1307 36.3813 58.0813 37.152 58.852C37.9227 59.6227 38.872 60.0053 40 60ZM36 44H44V20H36V44ZM40 80C34.4667 80 29.2667 78.9493 24.4 76.848C19.5333 74.7467 15.3 71.8973 11.7 68.3C8.10001 64.7027 5.25067 60.4693 3.15201 55.6C1.05334 50.7307 0.00267173 45.5307 5.06329e-06 40C-0.0026616 34.4693 1.04801 29.2693 3.15201 24.4C5.25601 19.5307 8.10534 15.2973 11.7 11.7C15.2947 8.10267 19.528 5.25333 24.4 3.152C29.272 1.05067 34.472 0 40 0C45.528 0 50.728 1.05067 55.6 3.152C60.472 5.25333 64.7053 8.10267 68.3 11.7C71.8947 15.2973 74.7453 19.5307 76.852 24.4C78.9587 29.2693 80.008 34.4693 80 40C79.992 45.5307 78.9413 50.7307 76.848 55.6C74.7547 60.4693 71.9053 64.7027 68.3 68.3C64.6947 71.8973 60.4613 74.748 55.6 76.852C50.7387 78.956 45.5387 80.0053 40 80ZM40 72C48.9333 72 56.5 68.9 62.7 62.7C68.9 56.5 72 48.9333 72 40C72 31.0667 68.9 23.5 62.7 17.3C56.5 11.1 48.9333 8 40 8C31.0667 8 23.5 11.1 17.3 17.3C11.1 23.5 8 31.0667 8 40C8 48.9333 11.1 56.5 17.3 62.7C23.5 68.9 31.0667 72 40 72Z" fill="#0093DD"/>
</svg>
