<svg width="16" height="16" viewBox="0 0 16 16" fill="none" xmlns="http://www.w3.org/2000/svg">
<path d="M13.3 14C11.9111 14 10.5389 13.6973 9.18333 13.092C7.82778 12.4867 6.59445 11.6282 5.48333 10.5167C4.37222 9.40511 3.514 8.17178 2.90867 6.81667C2.30333 5.46156 2.00044 4.08933 2 2.7C2 2.5 2.06667 2.33333 2.2 2.2C2.33333 2.06667 2.5 2 2.7 2H5.4C5.55556 2 5.69445 2.05289 5.81667 2.15867C5.93889 2.26444 6.01111 2.38933 6.03333 2.53333L6.46667 4.86667C6.48889 5.04445 6.48333 5.19444 6.45 5.31667C6.41667 5.43889 6.35556 5.54444 6.26667 5.63333L4.65 7.26667C4.87222 7.67778 5.136 8.07489 5.44133 8.458C5.74667 8.84111 6.08289 9.21067 6.45 9.56667C6.79445 9.91111 7.15556 10.2307 7.53333 10.5253C7.91111 10.82 8.31111 11.0893 8.73333 11.3333L10.3 9.76667C10.4 9.66667 10.5307 9.59178 10.692 9.542C10.8533 9.49222 11.0116 9.47822 11.1667 9.5L13.4667 9.96667C13.6222 10.0111 13.75 10.0918 13.85 10.2087C13.95 10.3256 14 10.456 14 10.6V13.3C14 13.5 13.9333 13.6667 13.8 13.8C13.6667 13.9333 13.5 14 13.3 14Z" fill="#0093DD"/>
</svg>
