<svg width="17" height="17" viewBox="0 0 17 17" fill="none" xmlns="http://www.w3.org/2000/svg">
<path d="M14.1844 13.2962C14.1877 13.2912 14.1927 13.2862 14.196 13.2812C15.2834 11.988 15.9375 10.3212 15.9375 8.5C15.9375 6.67881 15.2834 5.01201 14.1977 3.71875C14.1943 3.71377 14.1894 3.71045 14.186 3.70547C14.1678 3.68389 14.1512 3.66396 14.1329 3.64404C14.1263 3.63574 14.1196 3.6291 14.113 3.6208L14.0449 3.54277L14.0433 3.54111C14.0184 3.51289 13.9918 3.48467 13.9669 3.45645L13.9652 3.45479C13.9121 3.39834 13.859 3.34189 13.8042 3.28711L13.8025 3.28545L13.7229 3.20576L13.7179 3.20078C13.693 3.17588 13.6681 3.15264 13.6432 3.12939C13.6349 3.12109 13.6266 3.11279 13.6166 3.10449C13.6 3.08789 13.5834 3.07295 13.5668 3.05801C13.5618 3.05303 13.5552 3.04805 13.5502 3.04141C12.2254 1.81289 10.4507 1.0625 8.5 1.0625C6.54932 1.0625 4.77461 1.81289 3.44814 3.04141C3.44316 3.04639 3.43652 3.05137 3.43154 3.05801C3.41494 3.07295 3.39834 3.08955 3.38174 3.10615C3.37344 3.11445 3.36514 3.12275 3.35518 3.13105C3.33027 3.1543 3.30537 3.1792 3.28047 3.20244L3.27549 3.20742L3.1958 3.28711L3.19414 3.28877C3.13936 3.34355 3.08623 3.4 3.03311 3.45645L3.03145 3.45811C3.00488 3.48633 2.97998 3.51455 2.95508 3.54277L2.95342 3.54443C2.93018 3.56934 2.90693 3.5959 2.88535 3.62246C2.87871 3.63076 2.87207 3.6374 2.86543 3.6457C2.84717 3.66563 2.83057 3.68721 2.8123 3.70713C2.80898 3.71211 2.804 3.71543 2.80068 3.72041C1.7166 5.01201 1.0625 6.67881 1.0625 8.5C1.0625 10.3212 1.7166 11.988 2.80234 13.2812C2.80566 13.2862 2.81064 13.2912 2.81396 13.2962L2.86543 13.3576C2.87207 13.3659 2.87871 13.3726 2.88535 13.3809L2.95342 13.4589C2.95342 13.4605 2.95508 13.4605 2.95508 13.4622C2.97998 13.4904 3.00488 13.5187 3.03145 13.5452L3.03311 13.5469C3.08623 13.6033 3.13936 13.6598 3.19248 13.7146L3.19414 13.7162C3.2207 13.7428 3.24561 13.7693 3.27217 13.7942L3.27715 13.7992C3.33193 13.854 3.38838 13.9071 3.44482 13.9586C4.77461 15.1871 6.54932 15.9375 8.5 15.9375C10.4507 15.9375 12.2254 15.1871 13.5519 13.9586C13.6084 13.9068 13.6638 13.8536 13.7179 13.7992L13.7229 13.7942C13.7494 13.7677 13.776 13.7428 13.8009 13.7162L13.8025 13.7146C13.8573 13.6598 13.9104 13.6033 13.9619 13.5469L13.9636 13.5452C13.9885 13.517 14.015 13.4904 14.0399 13.4622C14.0399 13.4605 14.0416 13.4605 14.0416 13.4589C14.0648 13.434 14.0881 13.4074 14.1097 13.3809C14.1163 13.3726 14.1229 13.3659 14.1296 13.3576C14.1484 13.3376 14.1666 13.3171 14.1844 13.2962ZM14.2524 10.9288C14.0233 11.47 13.7212 11.9714 13.3526 12.4263C12.9376 12.0675 12.4837 11.7563 11.9996 11.4982C12.1922 10.7196 12.3117 9.86465 12.3433 8.96484H14.7256C14.6758 9.64385 14.5164 10.3029 14.2524 10.9288ZM14.7256 8.03516H12.3433C12.3117 7.13535 12.1922 6.28037 11.9996 5.50176C12.486 5.24277 12.9393 4.93066 13.3526 4.57373C14.1538 5.55982 14.633 6.76802 14.7256 8.03516ZM10.9288 2.74756C11.5879 3.02646 12.1872 3.41162 12.7151 3.89639C12.4085 4.15752 12.0783 4.38982 11.729 4.59033C11.4684 3.84326 11.1347 3.19414 10.7462 2.67451C10.8076 2.69775 10.869 2.72266 10.9288 2.74756ZM9.42471 14.3786C9.27197 14.4981 9.11924 14.5895 8.96484 14.6509V11.5713C9.62358 11.6172 10.2714 11.7639 10.8856 12.0063C10.7479 12.4146 10.5885 12.7915 10.4042 13.1318C10.1153 13.6697 9.77666 14.0997 9.42471 14.3786ZM10.4042 3.86816C10.5868 4.21016 10.7479 4.58701 10.8856 4.99375C10.2714 5.23606 9.62358 5.38275 8.96484 5.42871V2.35078C9.11758 2.41221 9.27197 2.50186 9.42471 2.62305C9.77666 2.90029 10.1153 3.33027 10.4042 3.86816ZM8.96484 10.6399V8.96484H11.4136C11.387 9.69863 11.2957 10.4108 11.143 11.0865L11.138 11.1064C10.4413 10.8422 9.70861 10.685 8.96484 10.6399ZM8.96484 8.03516V6.36006C9.72519 6.31357 10.4557 6.15254 11.138 5.89355L11.143 5.91348C11.2957 6.58916 11.387 7.29971 11.4136 8.03516H8.96484ZM8.03516 8.96484V10.6399C7.2748 10.6864 6.54434 10.8475 5.86201 11.1064L5.85703 11.0865C5.7043 10.4108 5.61299 9.70029 5.58643 8.96484H8.03516ZM5.58643 8.03516C5.61299 7.30137 5.7043 6.58916 5.85703 5.91348L5.86201 5.89355C6.54434 6.15254 7.27314 6.31357 8.03516 6.36006V8.03516H5.58643ZM8.03516 11.5713V14.6492C7.88242 14.5878 7.72803 14.4981 7.57529 14.377C7.22334 14.0997 6.88301 13.6681 6.59414 13.1302C6.41152 12.7882 6.25049 12.4113 6.1127 12.0046C6.73027 11.7622 7.37275 11.6178 8.03516 11.5713ZM8.03516 5.42871C7.37642 5.38275 6.72863 5.23606 6.11436 4.99375C6.25215 4.58535 6.41152 4.2085 6.5958 3.86816C6.88467 3.33027 7.22334 2.89863 7.57695 2.62139C7.72969 2.50186 7.88242 2.41055 8.03682 2.34912V5.42871H8.03516ZM6.07119 2.74756C6.13262 2.72266 6.19238 2.69775 6.25381 2.67451C5.86533 3.19414 5.53164 3.84326 5.271 4.59033C4.92236 4.39111 4.59199 4.15869 4.28486 3.89639C4.81279 3.41162 5.41211 3.02646 6.07119 2.74756ZM2.74756 6.07119C2.97666 5.52998 3.27881 5.02861 3.64736 4.57373C4.06074 4.93066 4.51397 5.24277 5.00039 5.50176C4.80781 6.28037 4.68828 7.13535 4.65674 8.03516H2.27441C2.32422 7.35615 2.48359 6.69707 2.74756 6.07119ZM2.27441 8.96484H4.65674C4.68828 9.86465 4.80781 10.7196 5.00039 11.4982C4.51625 11.7563 4.06243 12.0675 3.64736 12.4263C2.84622 11.4402 2.367 10.232 2.27441 8.96484ZM6.07119 14.2524C5.41211 13.9735 4.81279 13.5884 4.28486 13.1036C4.59199 12.8413 4.92236 12.6105 5.271 12.4097C5.53164 13.1567 5.86533 13.8059 6.25381 14.3255C6.19238 14.3022 6.13096 14.2773 6.07119 14.2524ZM10.9288 14.2524C10.8674 14.2773 10.8076 14.3022 10.7462 14.3255C11.1347 13.8059 11.4684 13.1567 11.729 12.4097C12.0776 12.6089 12.408 12.8413 12.7151 13.1036C12.1901 13.5864 11.5858 13.975 10.9288 14.2524Z" fill="#40CFFF"/>
</svg>
