<svg width="16" height="16" viewBox="0 0 16 16" fill="none" xmlns="http://www.w3.org/2000/svg">
<path d="M11.934 11.5933C11.7607 11.0599 11.2607 10.6666 10.6673 10.6666H10.0007V8.66659C10.0007 8.48977 9.93041 8.32021 9.80539 8.19518C9.68036 8.07016 9.5108 7.99992 9.33398 7.99992H5.33398V6.66659H6.66732C6.84413 6.66659 7.0137 6.59635 7.13872 6.47132C7.26375 6.3463 7.33398 6.17673 7.33398 5.99992V4.66659H8.66732C9.02094 4.66659 9.36008 4.52611 9.61013 4.27606C9.86018 4.02601 10.0007 3.68687 10.0007 3.33325V3.05992C10.7983 3.3815 11.5061 3.89157 12.0636 4.54648C12.6211 5.20138 13.0115 5.98162 13.2015 6.82039C13.3916 7.65917 13.3755 8.5315 13.1548 9.36272C12.934 10.1939 12.5151 10.9593 11.934 11.5933ZM7.33398 13.2866C4.70065 12.9599 2.66732 10.7199 2.66732 7.99992C2.66732 7.58659 2.72065 7.18659 2.80732 6.80659L6.00065 9.99992V10.6666C6.00065 11.0202 6.14113 11.3593 6.39118 11.6094C6.64122 11.8594 6.98036 11.9999 7.33398 11.9999M8.00065 1.33325C7.12517 1.33325 6.25827 1.50569 5.44943 1.84072C4.64059 2.17575 3.90566 2.66682 3.28661 3.28587C2.03636 4.53612 1.33398 6.23181 1.33398 7.99992C1.33398 9.76803 2.03636 11.4637 3.28661 12.714C3.90566 13.333 4.64059 13.8241 5.44943 14.1591C6.25827 14.4941 7.12517 14.6666 8.00065 14.6666C9.76876 14.6666 11.4645 13.9642 12.7147 12.714C13.9649 11.4637 14.6673 9.76803 14.6673 7.99992C14.6673 7.12444 14.4949 6.25753 14.1598 5.4487C13.8248 4.63986 13.3338 3.90493 12.7147 3.28587C12.0956 2.66682 11.3607 2.17575 10.5519 1.84072C9.74304 1.50569 8.87613 1.33325 8.00065 1.33325Z" fill="#0093DD"/>
</svg>
