<svg width="20" height="20" viewBox="0 0 20 20" fill="none" xmlns="http://www.w3.org/2000/svg">
<path d="M15.8327 15.8335H14.166C13.9299 15.8335 13.7321 15.7535 13.5727 15.5935C13.4132 15.4335 13.3332 15.2357 13.3327 15.0002C13.3321 14.7646 13.4121 14.5668 13.5727 14.4068C13.7332 14.2468 13.931 14.1668 14.166 14.1668H15.8327V12.5002C15.8327 12.2641 15.9127 12.0663 16.0727 11.9068C16.2327 11.7474 16.4305 11.6674 16.666 11.6668C16.9016 11.6663 17.0996 11.7463 17.2602 11.9068C17.4207 12.0674 17.5005 12.2652 17.4993 12.5002V14.1668H19.166C19.4021 14.1668 19.6002 14.2468 19.7602 14.4068C19.9202 14.5668 19.9999 14.7646 19.9993 15.0002C19.9988 15.2357 19.9188 15.4338 19.7593 15.5943C19.5999 15.7549 19.4021 15.8346 19.166 15.8335H17.4993V17.5002C17.4993 17.7363 17.4193 17.9343 17.2593 18.0943C17.0993 18.2543 16.9016 18.3341 16.666 18.3335C16.4305 18.3329 16.2327 18.2529 16.0727 18.0935C15.9127 17.9341 15.8327 17.7363 15.8327 17.5002V15.8335ZM3.33268 10.0002H16.666V6.66683H3.33268V10.0002ZM3.33268 16.6668C2.87435 16.6668 2.48213 16.5038 2.15602 16.1777C1.8299 15.8516 1.66657 15.4591 1.66602 15.0002V5.00016C1.66602 4.54183 1.82935 4.14961 2.15602 3.8235C2.48268 3.49738 2.8749 3.33405 3.33268 3.3335H16.666C17.1243 3.3335 17.5168 3.49683 17.8435 3.8235C18.1702 4.15016 18.3332 4.54238 18.3327 5.00016V9.16683C18.3327 9.40294 18.2527 9.601 18.0927 9.761C17.9327 9.921 17.7349 10.0007 17.4993 10.0002H15.8327C14.6799 10.0002 13.6974 10.4066 12.8852 11.2193C12.073 12.0321 11.6666 13.0146 11.666 14.1668V15.8335C11.666 16.0696 11.586 16.2677 11.426 16.4277C11.266 16.5877 11.0682 16.6674 10.8327 16.6668H3.33268Z" fill="white"/>
</svg>
