<svg width="37" height="37" viewBox="0 0 37 37" fill="none" xmlns="http://www.w3.org/2000/svg">
<path d="M6.4168 5.5C6.17368 5.5 5.94052 5.59658 5.76862 5.76849C5.59671 5.94039 5.50013 6.17355 5.50013 6.41667C5.50013 6.65978 5.59671 6.89294 5.76862 7.06485C5.94052 7.23676 6.17368 7.33333 6.4168 7.33333H7.7918L3.80796 16.8942C3.7111 17.1294 3.66428 17.3823 3.67046 17.6367C3.72245 19.0596 4.32428 20.407 5.34936 21.3953C6.37444 22.3836 7.74287 22.9359 9.1668 22.9359C10.5907 22.9359 11.9591 22.3836 12.9842 21.3953C14.0093 20.407 14.6111 19.0596 14.6631 17.6367C14.6693 17.3823 14.6225 17.1294 14.5256 16.8942L10.5418 7.33333H17.4168V27.5H10.0835C9.35412 27.5 8.65464 27.7897 8.13892 28.3055C7.62319 28.8212 7.33346 29.5207 7.33346 30.25C7.33346 30.9793 7.62319 31.6788 8.13892 32.1945C8.65464 32.7103 9.35412 33 10.0835 33H26.5835C27.3128 33 28.0123 32.7103 28.528 32.1945C29.0437 31.6788 29.3335 30.9793 29.3335 30.25C29.3335 29.5207 29.0437 28.8212 28.528 28.3055C28.0123 27.7897 27.3128 27.5 26.5835 27.5H19.2501V7.33333H26.1251L22.1413 16.8942C22.0444 17.1294 21.9976 17.3823 22.0038 17.6367C22.0558 19.0596 22.6576 20.407 23.6827 21.3953C24.7078 22.3836 26.0762 22.9359 27.5001 22.9359C28.9241 22.9359 30.2925 22.3836 31.3176 21.3953C32.3426 20.407 32.9445 19.0596 32.9965 17.6367C33.0026 17.3823 32.9558 17.1294 32.859 16.8942L28.8751 7.33333H30.2501C30.4932 7.33333 30.7264 7.23676 30.8983 7.06485C31.0702 6.89294 31.1668 6.65978 31.1668 6.41667C31.1668 6.17355 31.0702 5.94039 30.8983 5.76849C30.7264 5.59658 30.4932 5.5 30.2501 5.5H6.4168ZM9.1668 8.8L12.3751 16.5H5.95846L9.1668 8.8ZM30.7085 16.5H24.2918L27.5001 8.8L30.7085 16.5Z" fill="white"/>
</svg>
