<svg width="96" height="96" viewBox="0 0 96 96" fill="none" xmlns="http://www.w3.org/2000/svg">
<path d="M48 68C49.1333 68 50.084 67.616 50.852 66.848C51.62 66.08 52.0027 65.1307 52 64C51.9973 62.8693 51.6133 61.92 50.848 61.152C50.0827 60.384 49.1333 60 48 60C46.8667 60 45.9173 60.384 45.152 61.152C44.3867 61.92 44.0027 62.8693 44 64C43.9973 65.1307 44.3813 66.0813 45.152 66.852C45.9227 67.6227 46.872 68.0053 48 68ZM44 52H52V28H44V52ZM48 88C42.4667 88 37.2667 86.9493 32.4 84.848C27.5333 82.7467 23.3 79.8973 19.7 76.3C16.1 72.7027 13.2507 68.4693 11.152 63.6C9.05334 58.7307 8.00267 53.5307 8.00001 48C7.99734 42.4693 9.04801 37.2693 11.152 32.4C13.256 27.5307 16.1053 23.2973 19.7 19.7C23.2947 16.1027 27.528 13.2533 32.4 11.152C37.272 9.05067 42.472 8 48 8C53.528 8 58.728 9.05067 63.6 11.152C68.472 13.2533 72.7053 16.1027 76.3 19.7C79.8947 23.2973 82.7453 27.5307 84.852 32.4C86.9587 37.2693 88.008 42.4693 88 48C87.992 53.5307 86.9413 58.7307 84.848 63.6C82.7547 68.4693 79.9053 72.7027 76.3 76.3C72.6947 79.8973 68.4613 82.748 63.6 84.852C58.7387 86.956 53.5387 88.0053 48 88ZM48 80C56.9333 80 64.5 76.9 70.7 70.7C76.9 64.5 80 56.9333 80 48C80 39.0667 76.9 31.5 70.7 25.3C64.5 19.1 56.9333 16 48 16C39.0667 16 31.5 19.1 25.3 25.3C19.1 31.5 16 39.0667 16 48C16 56.9333 19.1 64.5 25.3 70.7C31.5 76.9 39.0667 80 48 80Z" fill="#0093DD"/>
</svg>
