<svg width="20" height="20" viewBox="0 0 20 20" fill="none" xmlns="http://www.w3.org/2000/svg">
<path d="M14.916 14.4915C14.6993 13.8248 14.0743 13.3332 13.3327 13.3332H12.4993V10.8332C12.4993 10.6122 12.4116 10.4002 12.2553 10.2439C12.099 10.0876 11.887 9.99984 11.666 9.99984H6.66602V8.33317H8.33268C8.5537 8.33317 8.76566 8.24537 8.92194 8.08909C9.07822 7.93281 9.16602 7.72085 9.16602 7.49984V5.83317H10.8327C11.2747 5.83317 11.6986 5.65758 12.0112 5.34502C12.3238 5.03245 12.4993 4.60853 12.4993 4.1665V3.82484C13.4964 4.22681 14.3812 4.8644 15.078 5.68303C15.7749 6.50167 16.2629 7.47696 16.5005 8.52543C16.738 9.5739 16.718 10.6643 16.442 11.7033C16.1661 12.7424 15.6425 13.699 14.916 14.4915ZM9.16602 16.6082C5.87435 16.1998 3.33268 13.3998 3.33268 9.99984C3.33268 9.48317 3.39935 8.98317 3.50768 8.50817L7.49935 12.4998V13.3332C7.49935 13.7752 7.67494 14.1991 7.9875 14.5117C8.30007 14.8242 8.72399 14.9998 9.16602 14.9998M9.99935 1.6665C8.905 1.6665 7.82137 1.88205 6.81032 2.30084C5.79927 2.71963 4.88061 3.33346 4.10679 4.10728C2.54399 5.67008 1.66602 7.7897 1.66602 9.99984C1.66602 12.21 2.54399 14.3296 4.10679 15.8924C4.88061 16.6662 5.79927 17.28 6.81032 17.6988C7.82137 18.1176 8.905 18.3332 9.99935 18.3332C12.2095 18.3332 14.3291 17.4552 15.8919 15.8924C17.4547 14.3296 18.3327 12.21 18.3327 9.99984C18.3327 8.90549 18.1171 7.82186 17.6983 6.81081C17.2796 5.79976 16.6657 4.8811 15.8919 4.10728C15.1181 3.33346 14.1994 2.71963 13.1884 2.30084C12.1773 1.88205 11.0937 1.6665 9.99935 1.6665Z" fill="white"/>
</svg>
