<svg width="80" height="80" viewBox="0 0 80 80" fill="none" xmlns="http://www.w3.org/2000/svg">
<circle cx="40" cy="40" r="40" fill="url(#paint0_linear_393_2942)"/>
<path d="M16.9 31.75H63.1M16.9 48.25H63.1M15.25 40C15.25 43.2502 15.8902 46.4686 17.134 49.4714C18.3778 52.4742 20.2009 55.2026 22.4991 57.5009C24.7974 59.7991 27.5258 61.6222 30.5286 62.866C33.5314 64.1098 36.7498 64.75 40 64.75C43.2502 64.75 46.4686 64.1098 49.4714 62.866C52.4742 61.6222 55.2026 59.7991 57.5009 57.5009C59.7991 55.2026 61.6222 52.4742 62.866 49.4714C64.1098 46.4686 64.75 43.2502 64.75 40C64.75 33.4359 62.1424 27.1406 57.5009 22.4991C52.8594 17.8576 46.5641 15.25 40 15.25C33.4359 15.25 27.1406 17.8576 22.4991 22.4991C17.8576 27.1406 15.25 33.4359 15.25 40Z" stroke="white" stroke-width="2" stroke-linecap="round" stroke-linejoin="round"/>
<path d="M38.625 15.25C33.9922 22.6739 31.5361 31.2491 31.5361 40C31.5361 48.7509 33.9922 57.3261 38.625 64.75M41.375 15.25C46.0078 22.6739 48.4639 31.2491 48.4639 40C48.4639 48.7509 46.0078 57.3261 41.375 64.75" stroke="white" stroke-width="2" stroke-linecap="round" stroke-linejoin="round"/>
<defs>
<linearGradient id="paint0_linear_393_2942" x1="40" y1="0" x2="40" y2="80" gradientUnits="userSpaceOnUse">
<stop stop-color="#BCE1F4"/>
<stop offset="0.5" stop-color="#10A6F2"/>
<stop offset="1" stop-color="#BCE1F4"/>
</linearGradient>
</defs>
</svg>
